<?xml version="1.0"?>
<svg xmlns="http://www.w3.org/2000/svg" xmlns:xlink="http://www.w3.org/1999/xlink" xmlns:svgjs="http://svgjs.com/svgjs" version="1.1" width="512" height="512" x="0" y="0" viewBox="0 0 512 512" style="enable-background:new 0 0 512 512" xml:space="preserve" class=""><g><g xmlns="http://www.w3.org/2000/svg"><g><path d="m500.482 283.663c-14.731-14.757-38.478-15.464-54.062-1.612l-113.542 100.92c.13-1.37.203-2.755.203-4.158 0-24.126-19.628-43.754-43.754-43.754h-51.136c-11.592-15.552-26.892-27.955-44.532-36.051-5.022-2.305-10.956-.102-13.26 4.917-2.304 5.02-.102 10.956 4.917 13.26 15.943 7.317 29.577 18.892 39.428 33.473 1.859 2.752 4.964 4.402 8.286 4.402h56.297c13.098 0 23.754 10.656 23.754 23.754s-10.656 23.754-23.754 23.754h-95.982c-5.523 0-10 4.477-10 10s4.477 10 10 10h104.258c13.435 0 26.362-4.915 36.402-13.839l125.701-111.729c7.675-6.82 19.369-6.472 26.621.794 3.752 3.758 5.766 8.752 5.668 14.062-.097 5.31-2.291 10.228-6.179 13.847l-120.261 111.965c-23.779 22.139-54.77 34.332-87.26 34.332h-268.295c-5.523 0-10 4.477-10 10s4.477 10 10 10h268.295c37.564 0 73.395-14.097 100.889-39.693l120.263-111.965c7.894-7.349 12.35-17.336 12.547-28.12s-3.891-20.927-11.512-28.559z" fill="#7d9a88" data-original="#000000" style=""/><path d="m10 378.41h36.151c4.221 0 7.987-2.65 9.412-6.622 8.625-24.033 26.905-43.935 50.151-54.604 5.02-2.303 7.221-8.24 4.917-13.259-2.303-5.019-8.24-7.222-13.259-4.917-25.939 11.904-46.765 33.323-58.02 59.403h-29.352c-5.523 0-10 4.477-10 10s4.477 9.999 10 9.999z" fill="#7d9a88" data-original="#000000" style=""/><path d="m198.071 146.084c23.714 23.713 55.227 36.533 87.877 36.533 6.065 0 12.17-.452 18.271-1.35v120.263c0 5.523 4.478 10 10 10s10-4.477 10-10v-48.986c6.125.904 12.253 1.36 18.343 1.36 32.648 0 64.166-12.821 87.878-36.533 21.636-21.636 34.521-50.36 36.282-80.881.703-12.175-3.829-24.093-12.434-32.697s-20.522-13.135-32.697-12.434c-30.521 1.762-59.245 14.647-80.881 36.283-6.253 6.253-11.735 13.055-16.438 20.271 1.001-33.953-11.871-66.956-36.474-91.558-21.636-21.636-50.36-34.522-80.881-36.283-12.173-.702-24.093 3.829-32.697 12.434s-13.136 20.522-12.434 32.697c1.764 30.521 14.65 59.244 36.285 80.881zm156.783-4.299c18.162-18.163 42.273-28.979 67.891-30.458 6.588-.381 12.761 1.968 17.402 6.609 4.642 4.642 6.989 10.822 6.609 17.403-1.479 25.618-12.295 49.728-30.458 67.891-20.899 20.899-49.023 31.714-77.886 30.583l49.263-49.263c3.905-3.905 3.905-10.237 0-14.142-3.906-3.905-10.236-3.904-14.143 0l-49.261 49.262c-1.131-28.867 9.684-56.988 30.583-77.885zm-166.49-95.137c4.317-4.316 9.964-6.649 16.026-6.649.457 0 .916.014 1.376.04 25.618 1.479 49.729 12.295 67.891 30.458 20.899 20.898 31.714 49.019 30.583 77.885l-49.261-49.262c-3.905-3.906-10.237-3.905-14.142 0s-3.906 10.237 0 14.142l49.265 49.265c-1.371.054-2.741.083-4.108.083-27.412-.001-53.874-10.764-73.778-30.668-18.163-18.163-28.98-42.273-30.459-67.891-.382-6.582 1.965-12.762 6.607-17.403z" fill="#7d9a88" data-original="#000000" style=""/><circle cx="145.515" cy="298.526" r="10" fill="#7d9a88" data-original="#000000" style=""/></g></g></g></svg>
