<svg id="Layer_1" data-name="Layer 1" xmlns="http://www.w3.org/2000/svg" viewBox="0 0 90.45 87.37"><defs><style>.cls-1{fill:#fff;}</style></defs><path class="cls-1" d="M196.7,111.47v2.33a18.17,18.17,0,0,0-4.63,1.45,11.94,11.94,0,0,0-3.37,2.46,16,16,0,0,0-2.55,3.62c-.73,1.41-1.48,3-2.23,4.82l-29.8,72.69h-2.33l-32-73.63q-2.52-5.8-3.47-6.93a11.23,11.23,0,0,0-3.84-3.06,17.86,17.86,0,0,0-6.24-1.42v-2.33h34.9v2.33a32.59,32.59,0,0,0-4.88.82,9.15,9.15,0,0,0-2.87,1.23,3.63,3.63,0,0,0-1.35,1.64,5.76,5.76,0,0,0-.35,2.05q0,3.21,2.9,9.82l21.73,50.08L176.48,130q3-7.37,3-10.14a4.87,4.87,0,0,0-2-3.68q-2.06-1.74-7-2.37v-2.33Z" transform="translate(-106.25 -111.47)"/></svg>