<svg id="Layer_1" data-name="Layer 1" xmlns="http://www.w3.org/2000/svg" viewBox="0 0 194.86 194.86"><defs><style>.cls-1{fill:none;stroke:#0a2322;stroke-miterlimit:10;stroke-width:3px;}.cls-2{fill:#0a2322;}</style></defs><circle class="cls-1" cx="97.43" cy="97.43" r="95.9"/><path class="cls-2" d="M86.05,81.76l.31.25a2.6,2.6,0,0,0,0,1.17,5,5,0,0,0,.73,1.76l6.18,10.49-.23.25-.23.28-.21.26c-.08.1-.14.19-.2.28l-12.93-4a2.33,2.33,0,0,0-1.16-.14,1.1,1.1,0,0,0-.62.31l-.32-.25c.27-.3.58-.66.93-1.07s.7-.83,1-1.25.75-.93,1.08-1.35l.8-1,.31.25a2,2,0,0,0-.56,1.2c0,.28.4.53,1.13.76l9.47,3,.13.64-4-6.84a8.53,8.53,0,0,0-1.47-1.93,1.51,1.51,0,0,0-1.23-.45,2,2,0,0,0-1.11.72l-.31-.25.84-1c.27-.3.53-.61.79-.93s.36-.45.51-.66S85.94,81.93,86.05,81.76Z" transform="translate(-54.04 -46.62)"/><path class="cls-2" d="M95.75,73.1c.35.48.69.93,1,1.35l.81,1c.18.2.35.39.52.56l.42.42-.34.31a7.71,7.71,0,0,0-2-1.32,2.67,2.67,0,0,0-1.61-.19,3.43,3.43,0,0,0-1.41.78l-.62.54a3,3,0,0,0-.6.67.62.62,0,0,0,0,.55,3.21,3.21,0,0,0,.54.76l6.88,7.8a3.28,3.28,0,0,0,.68.63.62.62,0,0,0,.56,0,3.06,3.06,0,0,0,.73-.51l.74-.65a3.2,3.2,0,0,0,.93-1.34,3.06,3.06,0,0,0,0-1.78,8.36,8.36,0,0,0-1.12-2.4l.35-.31c.25.35.61.78,1.06,1.3l.88,1a16,16,0,0,0,1.24,1.23c-.53.43-1.11.93-1.76,1.48l-1.72,1.5-1.35,1.19L98.8,89.21c-.62.56-1.2,1.09-1.72,1.59l-.26-.3a3.63,3.63,0,0,0,.61-.76.69.69,0,0,0,0-.64,4.4,4.4,0,0,0-.63-.88l-6.56-7.45a3.77,3.77,0,0,0-.81-.74A.7.7,0,0,0,88.8,80a2.77,2.77,0,0,0-.82.52l-.26-.31,1.78-1.51,1.8-1.56,1.35-1.19,1.56-1.39C94.79,74,95.31,73.53,95.75,73.1Zm2.18,7.2.26.3-2.62,2.31-.27-.3Zm-1.31-2.37c.46.61.83,1.06,1.1,1.35l.73.82.74.81c.28.29.69.71,1.23,1.24l-.35.31a4.45,4.45,0,0,0-1.13-.73,2.39,2.39,0,0,0-1.22-.22,2.12,2.12,0,0,0-1.22.58l-.27-.3a1.8,1.8,0,0,0,.67-1.18,2.9,2.9,0,0,0-.14-1.27,4.86,4.86,0,0,0-.49-1.1Z" transform="translate(-54.04 -46.62)"/><path class="cls-2" d="M105,66.58a5.5,5.5,0,0,1,2.09-.83,6.73,6.73,0,0,1,1.79,0,.7.7,0,0,0,.44-.06c.21-.13.15-.56-.2-1.28l.39-.24c.25.46.56,1,.94,1.64s.88,1.48,1.52,2.53l-.4.24A11.17,11.17,0,0,0,110.09,67a3.9,3.9,0,0,0-3.1-.74,4.13,4.13,0,0,0-1.36.52,3.13,3.13,0,0,0-1.31,1.47,4.33,4.33,0,0,0-.28,2,8.52,8.52,0,0,0,.52,2.27,12.89,12.89,0,0,0,1.13,2.3,10.53,10.53,0,0,0,3.58,4,3.14,3.14,0,0,0,3.3-.06,3.08,3.08,0,0,0,.66-.54,2.29,2.29,0,0,0,.34-.55,1,1,0,0,0,.1-.56,1.45,1.45,0,0,0-.23-.57l-1-1.68a4.91,4.91,0,0,0-.84-1.09,1,1,0,0,0-.82-.21,4.08,4.08,0,0,0-1.19.51l-.21-.34c.25-.13.54-.3.88-.5l1.06-.62,1-.61c.48-.29.91-.57,1.3-.82l1-.63.2.34a.89.89,0,0,0-.45.66,3.42,3.42,0,0,0,.58,1.28L117,76.17l-.34.21a3,3,0,0,0-.52-.56c-.21-.18-.4-.22-.57-.11a1.2,1.2,0,0,0-.28.25,3.73,3.73,0,0,0-.43.67,9.32,9.32,0,0,1-1,1.42,5,5,0,0,1-1.31,1.14A7.06,7.06,0,0,1,107,80.35a7.34,7.34,0,0,1-4.32-3.58,8,8,0,0,1-1.27-3.86,6.67,6.67,0,0,1,.82-3.57A7.38,7.38,0,0,1,105,66.58Z" transform="translate(-54.04 -46.62)"/><path class="cls-2" d="M123.05,58.45c.17.56.34,1.1.52,1.62s.33.91.44,1.18.19.48.29.7l.26.55-.43.16a7.82,7.82,0,0,0-1.42-1.92,2.57,2.57,0,0,0-1.46-.71,3.22,3.22,0,0,0-1.58.25l-.77.3a2.66,2.66,0,0,0-.79.42.6.6,0,0,0-.22.5,3,3,0,0,0,.25.9L122,72.08a3.47,3.47,0,0,0,.43.82.61.61,0,0,0,.51.23,3.12,3.12,0,0,0,.87-.23l.91-.36a3.33,3.33,0,0,0,1.34-1,3.2,3.2,0,0,0,.61-1.67,8.75,8.75,0,0,0-.24-2.64l.43-.17c.12.41.31.94.56,1.59.11.28.28.68.5,1.2a16,16,0,0,0,.75,1.58c-.65.22-1.37.49-2.16.79l-2.13.83-1.67.66-2.21.88c-.78.31-1.5.62-2.16.9l-.15-.37a3.6,3.6,0,0,0,.84-.5.68.68,0,0,0,.22-.6,4.24,4.24,0,0,0-.29-1l-3.64-9.23a4,4,0,0,0-.5-1,.74.74,0,0,0-.59-.29,3,3,0,0,0-.94.21l-.14-.37,2.19-.82,2.22-.85,1.67-.66,1.95-.78Q122.21,58.83,123.05,58.45Zm-.39,7.5.14.38-3.25,1.28-.15-.37Zm-.43-2.66c.23.72.42,1.27.57,1.64s.29.71.41,1l.43,1c.15.36.4.89.73,1.58l-.43.17a5,5,0,0,0-.82-1.08,2.53,2.53,0,0,0-1.07-.62,2.17,2.17,0,0,0-1.35.14l-.15-.38a1.76,1.76,0,0,0,1-.88,3.07,3.07,0,0,0,.31-1.24,5.73,5.73,0,0,0-.09-1.21Z" transform="translate(-54.04 -46.62)"/><path class="cls-2" d="M138.49,54.72c.09.67.2,1.32.31,1.93s.21,1.09.28,1.42.12.56.19.82.13.47.19.65l-.45.1a10.55,10.55,0,0,0-1.36-2.43,3.22,3.22,0,0,0-1.44-1.11,3,3,0,0,0-1.65-.06l-.45.1,2.42,11.16a3.22,3.22,0,0,0,.42,1.13.91.91,0,0,0,.73.39,5.8,5.8,0,0,0,1.34-.14l.09.39-1.63.31c-.67.13-1.37.28-2.1.44s-1.39.31-2,.46l-1.53.37-.09-.39a5.9,5.9,0,0,0,1.3-.43.89.89,0,0,0,.49-.65,3.22,3.22,0,0,0-.1-1.21L131,56.81l-.43.09a3.05,3.05,0,0,0-1.48.74,3.14,3.14,0,0,0-.84,1.59A11.73,11.73,0,0,0,128,62l-.45.1a5.34,5.34,0,0,0-.09-.68c0-.26-.11-.53-.17-.82s-.18-.79-.33-1.4-.33-1.24-.53-1.89l2-.39,2.14-.44,1.94-.42,1.94-.42,2.14-.49Z" transform="translate(-54.04 -46.62)"/><path class="cls-2" d="M146.88,54.05l5.6,12.21a2.14,2.14,0,0,0,.69.95,1.27,1.27,0,0,0,.64.26l0,.39c-.4,0-.87,0-1.41,0s-1.09,0-1.63.09l-1.74.11c-.54,0-1,.08-1.29.13l0-.4A1.91,1.91,0,0,0,149,67.4q.26-.33-.21-1.32L144.86,57l.32-.54-2.56,8.09a7.06,7.06,0,0,0-.42,2.26,1.1,1.1,0,0,0,.55,1,3,3,0,0,0,1.3.24l0,.4c-.44,0-.86,0-1.26,0l-1.21.06-.83.06c-.26,0-.49.06-.69.09l0-.4a1.63,1.63,0,0,0,.82-.59,4.75,4.75,0,0,0,.77-1.6l3.86-12,.69,0C146.44,54.1,146.67,54.08,146.88,54.05Zm1.9,8.35,0,.39-5.95.36.17-.41Z" transform="translate(-54.04 -46.62)"/><path class="cls-2" d="M160.65,54.39l0,.4a3,3,0,0,0-1,.08.67.67,0,0,0-.46.45A4.23,4.23,0,0,0,159,56.4l-.67,9.9a4,4,0,0,0,0,1.09.69.69,0,0,0,.4.5,3.36,3.36,0,0,0,.94.23l0,.4c-.36,0-.81-.1-1.36-.15l-1.65-.12-1.81-.11c-.55,0-1,0-1.35,0l0-.4a3.91,3.91,0,0,0,1-.09.73.73,0,0,0,.46-.45,4,4,0,0,0,.18-1.07l.67-9.9a4,4,0,0,0,0-1.1.74.74,0,0,0-.4-.51,3.06,3.06,0,0,0-.94-.21l0-.4,1.34.13,1.81.15,1.65.09Z" transform="translate(-54.04 -46.62)"/><path class="cls-2" d="M170,55.86l2.27,13.24a2.33,2.33,0,0,0,.42,1.09,1.21,1.21,0,0,0,.56.41l-.08.39c-.38-.1-.84-.21-1.37-.32l-1.59-.34L168.5,70c-.54-.1-1-.17-1.28-.2l.07-.4a2,2,0,0,0,1.34-.08c.22-.17.26-.61.14-1.33l-1.49-9.79.46-.44-4.56,7.16a6.74,6.74,0,0,0-1,2.08,1.1,1.1,0,0,0,.28,1.11,2.81,2.81,0,0,0,1.19.56l-.08.39-1.23-.3-1.19-.25-.81-.16c-.26,0-.49-.07-.69-.08l.08-.4a1.64,1.64,0,0,0,.95-.35,4.93,4.93,0,0,0,1.15-1.36l6.8-10.56.67.15Zm-.31,8.55-.08.39-5.84-1.18.28-.35Z" transform="translate(-54.04 -46.62)"/><path class="cls-2" d="M190.21,62.48l-.15.37a2.08,2.08,0,0,0-1,0,1.32,1.32,0,0,0-.69.59,7.77,7.77,0,0,0-.65,1.37l-4,10.41a3.07,3.07,0,0,0-.45-.2c-.16-.06-.32-.12-.5-.17l-4.11-13.4-2.78,7.16a8.67,8.67,0,0,0-.5,1.62,1.17,1.17,0,0,0,.19,1,3.23,3.23,0,0,0,1.07.8l-.14.37c-.23-.12-.53-.25-.91-.41l-1.08-.43-.88-.33a7,7,0,0,0-.77-.24l.15-.38a2,2,0,0,0,1,0,1.23,1.23,0,0,0,.68-.58,7.27,7.27,0,0,0,.65-1.36l3.26-8.39a3.7,3.7,0,0,0,.29-1.06.73.73,0,0,0-.23-.61,3,3,0,0,0-.83-.48l.14-.37.73.32.87.36.87.32.76.25,3.76,11.69,2.26-5.83a8,8,0,0,0,.5-1.62,1.23,1.23,0,0,0-.18-1,3,3,0,0,0-1.08-.79l.14-.37.92.4,1.07.44.9.32C189.75,62.33,190,62.42,190.21,62.48Z" transform="translate(-54.04 -46.62)"/><path class="cls-2" d="M197.68,66.5l1.09.81,1.38,1,1.54,1,1.06.71a7.7,7.7,0,0,1,2.9,3.12,2.91,2.91,0,0,1-.33,2.9,3.71,3.71,0,0,1-1,1,3.39,3.39,0,0,1-1.51.52,5.17,5.17,0,0,1-2-.27,10.38,10.38,0,0,1-2.6-1.38l-1.58-1.09.23-.33,1.41,1a3,3,0,0,0,1.73.65,2.37,2.37,0,0,0,1.38-.51,5.72,5.72,0,0,0,1.14-1.24A4.51,4.51,0,0,0,203.4,72a2.12,2.12,0,0,0-1.08-1.81q-.65-.45-1-.3a2.67,2.67,0,0,0-1,1l-5.65,8.16a4.17,4.17,0,0,0-.53,1,.72.72,0,0,0,.08.64,3.81,3.81,0,0,0,.7.67l-.23.33c-.28-.22-.64-.5-1.08-.81l-1.36-1-1.5-1c-.47-.32-.85-.56-1.13-.73l.22-.33a3.49,3.49,0,0,0,.88.42.74.74,0,0,0,.63-.15,4.09,4.09,0,0,0,.71-.83l5.65-8.15a3.68,3.68,0,0,0,.53-1,.72.72,0,0,0-.09-.64,2.83,2.83,0,0,0-.7-.67Zm-.94,8c.47.34.86.65,1.18.92l.85.72.67.55a5.6,5.6,0,0,1,1.77,2.17,2.9,2.9,0,0,1-.14,2.17l-.79,2a3.8,3.8,0,0,0-.33,1.14.65.65,0,0,0,.3.59,1,1,0,0,0,.42.14,2.58,2.58,0,0,0,.5-.06l.09.35a3.19,3.19,0,0,1-1.46.07,3.61,3.61,0,0,1-1.39-.63,3.18,3.18,0,0,1-1.2-1.39,2.42,2.42,0,0,1,.22-1.92l.84-1.85a11,11,0,0,0,.56-1.4,2.43,2.43,0,0,0,.11-1.14,1.24,1.24,0,0,0-.58-.85l-1.78-1.23Z" transform="translate(-54.04 -46.62)"/><path class="cls-2" d="M218,83.13c-.44.38-.87.76-1.26,1.14s-.7.67-.9.88-.36.37-.52.56l-.39.45-.33-.32a7.92,7.92,0,0,0,1.17-2.08,2.67,2.67,0,0,0,.06-1.62,3.38,3.38,0,0,0-.88-1.35l-.59-.57a2.72,2.72,0,0,0-.71-.55.59.59,0,0,0-.55,0,3.37,3.37,0,0,0-.72.6l-7.26,7.45a2.92,2.92,0,0,0-.57.73.59.59,0,0,0,0,.55,2.71,2.71,0,0,0,.57.7l.7.68a3.12,3.12,0,0,0,1.41.83,3.07,3.07,0,0,0,1.77-.13,8.62,8.62,0,0,0,2.31-1.29l.33.32c-.32.28-.73.66-1.21,1.16-.22.22-.51.54-.9,1a17,17,0,0,0-1.12,1.33q-.71-.75-1.62-1.65l-1.62-1.6-1.29-1.25-1.71-1.66q-.91-.87-1.71-1.59l.28-.29a3.27,3.27,0,0,0,.8.55.67.67,0,0,0,.64,0,3.85,3.85,0,0,0,.83-.69l6.93-7.11a3.92,3.92,0,0,0,.68-.86.71.71,0,0,0,0-.65,3.13,3.13,0,0,0-.58-.77l.28-.28L212,77.32c.59.6,1.16,1.15,1.69,1.68L215,80.25l1.5,1.45C217,82.24,217.55,82.72,218,83.13Zm-7,2.72-.27.28-2.51-2.44.28-.29Zm2.26-1.49q-.85.77-1.26,1.2l-.76.79c-.24.24-.49.51-.76.8s-.65.74-1.14,1.32l-.33-.32a4.75,4.75,0,0,0,.64-1.19,2.37,2.37,0,0,0,.13-1.23,2.2,2.2,0,0,0-.67-1.18l.28-.28a1.86,1.86,0,0,0,1.22.58,3,3,0,0,0,1.26-.24,5.53,5.53,0,0,0,1.06-.57Z" transform="translate(-54.04 -46.62)"/><path class="cls-2" d="M225.11,91.68a5.09,5.09,0,0,1,1,2,7.63,7.63,0,0,1,.15,1.75c0,.34.09.51.3.54a2.06,2.06,0,0,0,1-.41l.27.37c-.43.29-1,.64-1.56,1.07s-1.41,1-2.4,1.71l-.27-.37a11.75,11.75,0,0,0,1.12-1.13,4.63,4.63,0,0,0,.67-1,3,3,0,0,0,.26-1.18,3.17,3.17,0,0,0-.09-1.37,3.87,3.87,0,0,0-.61-1.26,3,3,0,0,0-1.54-1.16,4.23,4.23,0,0,0-2-.08,8.58,8.58,0,0,0-2.19.74,14.38,14.38,0,0,0-4.14,3,7.87,7.87,0,0,0-1.35,1.87,4,4,0,0,0-.48,1.92,3.1,3.1,0,0,0,.62,1.82,4,4,0,0,0,1,.93,3.24,3.24,0,0,0,1.26.5,3,3,0,0,0,1.83,0,12.56,12.56,0,0,0,2.17-1.05l.27.37c-1,.74-1.85,1.35-2.47,1.82s-1.15.87-1.56,1.2l-.27-.37a2.18,2.18,0,0,0,.71-.85c0-.19-.09-.35-.42-.47a11.68,11.68,0,0,1-1.66-.74,5.06,5.06,0,0,1-1.56-1.5,7.69,7.69,0,0,1-1.49-3.5,6,6,0,0,1,.56-3.46,9,9,0,0,1,6.34-4.57,6.64,6.64,0,0,1,3.59.48A7.14,7.14,0,0,1,225.11,91.68Z" transform="translate(-54.04 -46.62)"/><path class="cls-2" d="M232.33,104.26l-.35.19a3.14,3.14,0,0,0-.59-.79.7.7,0,0,0-.62-.15,4.3,4.3,0,0,0-1,.43L221,108.61a4.14,4.14,0,0,0-.9.61.69.69,0,0,0-.22.61,3.5,3.5,0,0,0,.31.92l-.35.19q-.22-.5-.6-1.23l-.77-1.47-.87-1.59c-.26-.48-.49-.87-.68-1.16l.36-.19a3.5,3.5,0,0,0,.59.77.7.7,0,0,0,.63.15,3.88,3.88,0,0,0,1-.41l8.75-4.68a3.79,3.79,0,0,0,.91-.61.7.7,0,0,0,.21-.61,2.78,2.78,0,0,0-.31-.91l.35-.19c.15.31.35.72.6,1.21s.53,1,.84,1.61.53,1,.8,1.45Z" transform="translate(-54.04 -46.62)"/><path class="cls-2" d="M233.62,106.68c.1.31.25.74.44,1.27s.38,1.07.58,1.59.45,1.18.68,1.73l.47,1.19a6.58,6.58,0,0,1,.45,4.28,3.46,3.46,0,0,1-2.17,2.3,4.46,4.46,0,0,1-1.51.27,3.76,3.76,0,0,1-1.7-.37,4.86,4.86,0,0,1-1.67-1.32,8.71,8.71,0,0,1-1.43-2.58l-.72-1.91.37-.14.65,1.72a2.64,2.64,0,0,0,1.14,1.48,2.78,2.78,0,0,0,1.63.28,7.43,7.43,0,0,0,1.86-.46,5.67,5.67,0,0,0,2.45-1.53,2,2,0,0,0,.2-2.13c-.18-.48-.41-.76-.67-.82a2.79,2.79,0,0,0-1.38.28l-9.16,3.47a3.06,3.06,0,0,0-1,.56.84.84,0,0,0-.24.76,6.22,6.22,0,0,0,.35,1.32l-.41.15c-.14-.39-.32-.89-.53-1.51s-.46-1.26-.72-1.93-.4-1.06-.61-1.56-.39-1-.56-1.37l.37-.14a3.87,3.87,0,0,0,.49.84.69.69,0,0,0,.6.23,4.12,4.12,0,0,0,1-.28l9.28-3.52a3.8,3.8,0,0,0,1-.49.71.71,0,0,0,.29-.58,2.88,2.88,0,0,0-.2-.94Z" transform="translate(-54.04 -46.62)"/><path class="cls-2" d="M240.68,130.72q-.87.1-1.68.24c-.54.09-1,.17-1.24.23l-.74.17-.58.16-.1-.45a7.7,7.7,0,0,0,2.14-1.08,2.55,2.55,0,0,0,1-1.31,3.34,3.34,0,0,0,0-1.61l-.17-.8a3.09,3.09,0,0,0-.28-.85.59.59,0,0,0-.46-.3,2.84,2.84,0,0,0-.93.09l-10.19,2.12a3.37,3.37,0,0,0-.88.28.62.62,0,0,0-.31.46,2.92,2.92,0,0,0,.09.9l.2,1a2.87,2.87,0,0,0,2.24,2.36,8.86,8.86,0,0,0,2.64.22l.1.45a16.35,16.35,0,0,0-1.66.28l-1.27.28q-.81.19-1.68.48c-.11-.68-.25-1.43-.42-2.27s-.32-1.58-.45-2.23c-.09-.44-.22-1-.37-1.76s-.32-1.51-.49-2.33-.36-1.58-.53-2.28l.39-.08a3.38,3.38,0,0,0,.36.9.68.68,0,0,0,.55.33,4.06,4.06,0,0,0,1.08-.12l9.71-2a3.5,3.5,0,0,0,1.05-.33.7.7,0,0,0,.38-.52,3,3,0,0,0,0-1l.39-.09c.14.71.28,1.48.44,2.3s.31,1.61.47,2.34l.36,1.76c.13.6.27,1.28.44,2S240.53,130.13,240.68,130.72Zm-4.63-1.63c-.75.1-1.32.2-1.71.28l-1.08.24-1.07.24-1.69.45-.09-.45a5.23,5.23,0,0,0,1.2-.62,2.48,2.48,0,0,0,.79-.95,2.09,2.09,0,0,0,.1-1.35l.39-.08a1.82,1.82,0,0,0,.69,1.16,3.12,3.12,0,0,0,1.18.51,5.19,5.19,0,0,0,1.2.12Zm-2.7,0-.39.08-.71-3.43.39-.08Z" transform="translate(-54.04 -46.62)"/><path class="cls-2" d="M241.68,139.3a5,5,0,0,1-.16,1.83,7.13,7.13,0,0,1-.47,1.13,2.73,2.73,0,0,0-.19.4.79.79,0,0,0-.06.29c0,.21.32.34.91.39l0,.46h-.91l-1.39,0-2.26.11,0-.46a6.68,6.68,0,0,0,2-.58,4.19,4.19,0,0,0,1.55-1.22,2.68,2.68,0,0,0,.54-1.82,2.39,2.39,0,0,0-.62-1.55,1.93,1.93,0,0,0-1.53-.54,2.36,2.36,0,0,0-1.35.47,4.69,4.69,0,0,0-1,1.23l-1.2,1.93a19.68,19.68,0,0,1-1.15,1.78,5.32,5.32,0,0,1-1.34,1.3,3.62,3.62,0,0,1-1.83.55,3.33,3.33,0,0,1-2.21-.58,4.22,4.22,0,0,1-1.39-1.74,6.76,6.76,0,0,1-.55-2.43,6.49,6.49,0,0,1,.14-2,7.8,7.8,0,0,1,.43-1.27,1.56,1.56,0,0,0,.25-.69c0-.21-.32-.34-.91-.39l0-.46c.32,0,.69,0,1.12,0l1.67-.07,2.61-.12,0,.46a10.36,10.36,0,0,0-2.44.57,4.2,4.2,0,0,0-1.79,1.24,2.9,2.9,0,0,0-.59,2.08,2.74,2.74,0,0,0,.65,1.73,2,2,0,0,0,1.71.63,2.69,2.69,0,0,0,2-.94,14.66,14.66,0,0,0,1.56-2.24c.38-.65.76-1.26,1.15-1.83a5.22,5.22,0,0,1,1.35-1.38,3.51,3.51,0,0,1,1.87-.58,3.24,3.24,0,0,1,2.1.52,3.67,3.67,0,0,1,1.28,1.59A6.1,6.1,0,0,1,241.68,139.3Z" transform="translate(-54.04 -46.62)"/><path class="cls-2" d="M76.21,161.08l-.39.06a2.46,2.46,0,0,0-.82-.83,5,5,0,0,0-1.79-.68L61.34,157a2,2,0,0,0,0-.34c0-.12,0-.24-.05-.36s0-.21,0-.33a3.4,3.4,0,0,0-.07-.34l11.74-6.7a2.37,2.37,0,0,0,.9-.75,1.11,1.11,0,0,0,.2-.67l.4-.05c0,.39.09.86.15,1.4s.12,1.07.19,1.62.17,1.18.25,1.71.16,1,.21,1.29l-.39,0a2.09,2.09,0,0,0-.5-1.22q-.33-.25-1.32.3l-8.7,4.83-.55-.35,7.74,1.75a8,8,0,0,0,2.41.25,1.51,1.51,0,0,0,1.17-.59,1.88,1.88,0,0,0,.23-1.3l.4-.05c0,.45.09.88.13,1.27s.09.81.14,1.22.08.56.13.82S76.17,160.89,76.21,161.08Z" transform="translate(-54.04 -46.62)"/><path class="cls-2" d="M79.29,171c-.58.11-1.13.24-1.66.38l-1.21.33-.73.24-.56.21-.13-.44a7.76,7.76,0,0,0,2-1.26,2.49,2.49,0,0,0,.84-1.39,3.29,3.29,0,0,0-.11-1.6l-.24-.79a2.84,2.84,0,0,0-.35-.82.59.59,0,0,0-.48-.26,3.11,3.11,0,0,0-.92.17l-10,3a2.93,2.93,0,0,0-.85.36.6.6,0,0,0-.27.48,2.78,2.78,0,0,0,.16.89l.28.94a2.87,2.87,0,0,0,2.44,2.16,8.67,8.67,0,0,0,2.65,0l.13.44c-.42.08-1,.22-1.63.42l-1.24.39c-.53.18-1.07.38-1.63.62-.17-.66-.37-1.4-.61-2.22s-.45-1.55-.64-2.19c-.13-.43-.3-1-.52-1.72s-.44-1.48-.69-2.28-.49-1.55-.72-2.23l.38-.11a3.48,3.48,0,0,0,.43.87.7.7,0,0,0,.59.27,3.5,3.5,0,0,0,1.06-.2l9.51-2.84a3.76,3.76,0,0,0,1-.42.71.71,0,0,0,.33-.56,2.86,2.86,0,0,0-.13-1l.39-.11q.28,1,.63,2.25t.66,2.28c.22.72.39,1.3.52,1.73.17.59.38,1.25.61,2S79.09,170.38,79.29,171Zm-4.75-1.23c-.74.16-1.3.31-1.69.43l-1,.32-1,.34c-.38.12-.93.32-1.64.59L69,171a4.73,4.73,0,0,0,1.14-.73,2.28,2.28,0,0,0,.71-1,2.08,2.08,0,0,0,0-1.35l.39-.12a1.78,1.78,0,0,0,.79,1.1,3,3,0,0,0,1.22.41,6.08,6.08,0,0,0,1.2,0Zm-2.7.2-.38.11-1-3.35.38-.12Z" transform="translate(-54.04 -46.62)"/><path class="cls-2" d="M83.09,178.55a5.26,5.26,0,0,1,.64,2.16,7,7,0,0,1-.14,1.79.69.69,0,0,0,0,.44c.11.22.54.2,1.29-.09l.21.42c-.48.2-1.06.46-1.73.78s-1.55.74-2.65,1.28l-.2-.41a11.17,11.17,0,0,0,1.68-1.31,3.2,3.2,0,0,0,.9-1.63,3.53,3.53,0,0,0,.12-1.39,4.11,4.11,0,0,0-.4-1.4,3.11,3.11,0,0,0-1.34-1.43,4.29,4.29,0,0,0-2-.46,8.36,8.36,0,0,0-2.31.31,13.45,13.45,0,0,0-2.39.91,10.58,10.58,0,0,0-4.28,3.22,3.14,3.14,0,0,0-.23,3.29,2.69,2.69,0,0,0,.48.7,2,2,0,0,0,.51.39,1,1,0,0,0,.55.15,1.27,1.27,0,0,0,.59-.18l1.76-.86a4.56,4.56,0,0,0,1.16-.74.94.94,0,0,0,.29-.8,4.06,4.06,0,0,0-.41-1.23l.36-.18c.11.26.25.57.42.92l.53,1.11c.18.39.35.74.51,1.07.25.5.48,1,.7,1.37l.54,1-.36.18c-.19-.32-.39-.49-.61-.51a3.34,3.34,0,0,0-1.33.46l-3.55,1.75-.18-.35a3.08,3.08,0,0,0,.6-.47c.2-.19.26-.38.17-.56a1.5,1.5,0,0,0-.23-.3,3.5,3.5,0,0,0-.63-.48,9.1,9.1,0,0,1-1.32-1.09,4.81,4.81,0,0,1-1-1.41,7,7,0,0,1-.65-5.61,7.32,7.32,0,0,1,4-4,8.06,8.06,0,0,1,4-.92,6.76,6.76,0,0,1,3.48,1.14A7.36,7.36,0,0,1,83.09,178.55Z" transform="translate(-54.04 -46.62)"/><path class="cls-2" d="M92,193c-.5.3-1,.61-1.44.91l-1,.71c-.22.16-.42.31-.6.46l-.47.39-.27-.38a7.17,7.17,0,0,0,1.51-1.85,2.58,2.58,0,0,0,.34-1.59,3.25,3.25,0,0,0-.64-1.48l-.47-.66a2.89,2.89,0,0,0-.61-.66.58.58,0,0,0-.54-.09,2.94,2.94,0,0,0-.81.46l-8.44,6.09a3.08,3.08,0,0,0-.68.62.58.58,0,0,0-.1.55,3.29,3.29,0,0,0,.44.78l.57.79a2.88,2.88,0,0,0,3,1.24,8.37,8.37,0,0,0,2.5-.88l.27.38c-.37.21-.84.53-1.4.93-.25.18-.6.44-1,.78s-.9.71-1.34,1.11c-.38-.56-.82-1.2-1.31-1.89s-.94-1.32-1.33-1.86l-1.05-1.46-1.4-1.92c-.5-.68-1-1.3-1.41-1.87l.33-.23a3.06,3.06,0,0,0,.69.68.68.68,0,0,0,.64.07,4.08,4.08,0,0,0,.94-.54l8-5.81a4.3,4.3,0,0,0,.82-.72.71.71,0,0,0,.13-.64,3,3,0,0,0-.43-.86l.32-.23,1.34,1.92c.48.69.94,1.33,1.38,1.94l1.05,1.46,1.23,1.69C91.23,192,91.65,192.53,92,193Zm-7.37,1.48-.32.23-2-2.84.32-.23Zm2.48-1.08c-.65.4-1.13.72-1.45,1l-.89.65-.88.66-1.35,1.1-.27-.37a4.9,4.9,0,0,0,.84-1.06,2.35,2.35,0,0,0,.33-1.19,2,2,0,0,0-.46-1.27l.33-.24a1.75,1.75,0,0,0,1.11.78,2.91,2.91,0,0,0,1.28,0,6.09,6.09,0,0,0,1.14-.38Z" transform="translate(-54.04 -46.62)"/><path class="cls-2" d="M101.26,202.55c-.52.44-1,.88-1.47,1.3s-.8.76-1,1-.4.4-.58.6l-.46.51-.32-.33a10.75,10.75,0,0,0,1.32-2.45,3.22,3.22,0,0,0,.16-1.8A3,3,0,0,0,98,200l-.33-.33-8.11,8a3.24,3.24,0,0,0-.73,1,.89.89,0,0,0,.07.82,5.36,5.36,0,0,0,.83,1.05l-.28.29c-.28-.31-.66-.71-1.13-1.2L86.86,208l-1.48-1.46-1.14-1.09.28-.28a6.51,6.51,0,0,0,1.06.86.89.89,0,0,0,.82.06,3.35,3.35,0,0,0,1-.73l8.12-8-.31-.31a3.16,3.16,0,0,0-1.42-.85,3.2,3.2,0,0,0-1.8.15,12.32,12.32,0,0,0-2.49,1.28l-.32-.32c.15-.12.32-.26.52-.45l.6-.58,1-1c.43-.46.87-.95,1.32-1.46.42.44.88.93,1.39,1.45s1,1,1.52,1.57l1.4,1.41c.42.43.88.9,1.4,1.41s1,1,1.55,1.54Z" transform="translate(-54.04 -46.62)"/><path class="cls-2" d="M106.08,206,102.46,219a2.36,2.36,0,0,0-.09,1.17,1.18,1.18,0,0,0,.34.61l-.24.32c-.31-.26-.67-.56-1.1-.89l-1.3-1-1.4-1c-.44-.32-.8-.57-1.07-.73l.24-.33c.56.39,1,.56,1.24.5s.5-.44.69-1.14l2.86-9.49.59-.2L96,211.28a6.87,6.87,0,0,0-1.78,1.46,1.09,1.09,0,0,0-.22,1.12,2.71,2.71,0,0,0,.84,1l-.24.32c-.34-.29-.67-.55-1-.8l-1-.74-.67-.49c-.22-.15-.41-.27-.59-.37l.24-.32a1.67,1.67,0,0,0,1,.08,4.79,4.79,0,0,0,1.62-.73L105,205.2l.54.43C105.71,205.77,105.9,205.91,106.08,206Zm-3.94,7.6-.24.32-4.77-3.57.4-.2Z" transform="translate(-54.04 -46.62)"/><path class="cls-2" d="M116,212.32l-.2.34a3.19,3.19,0,0,0-.92-.35.73.73,0,0,0-.61.2,4.68,4.68,0,0,0-.63.9L108.72,222a4.65,4.65,0,0,0-.44,1,.69.69,0,0,0,.14.63,3.29,3.29,0,0,0,.75.62l-.2.35c-.3-.21-.68-.45-1.15-.72l-1.44-.84-1.57-.89c-.49-.27-.89-.47-1.2-.62l.2-.35a3.65,3.65,0,0,0,.91.34.69.69,0,0,0,.61-.21,3.39,3.39,0,0,0,.63-.88l4.93-8.61a3.74,3.74,0,0,0,.45-1,.71.71,0,0,0-.15-.63,2.66,2.66,0,0,0-.75-.61l.2-.34,1.15.7,1.57.92c.48.28,1,.55,1.45.81Z" transform="translate(-54.04 -46.62)"/><path class="cls-2" d="M122.69,215.28l-.29,13.43a2.42,2.42,0,0,0,.2,1.16,1.22,1.22,0,0,0,.48.5l-.16.37c-.36-.17-.79-.37-1.28-.58s-1-.43-1.5-.63l-1.62-.66c-.5-.2-.91-.35-1.22-.45l.16-.37a1.87,1.87,0,0,0,1.32.17c.25-.12.38-.55.39-1.28l.41-9.89.54-.35-5.84,6.16a7,7,0,0,0-1.37,1.86,1.13,1.13,0,0,0,.06,1.14,2.79,2.79,0,0,0,1.07.77l-.16.37c-.39-.19-.77-.36-1.14-.52l-1.12-.48-.77-.31q-.37-.13-.66-.21l.15-.37a1.75,1.75,0,0,0,1-.17,4.81,4.81,0,0,0,1.39-1.12l8.69-9.07c.19.1.4.19.63.29Zm-1.93,8.34-.15.37-5.51-2.28.34-.3Z" transform="translate(-54.04 -46.62)"/><path class="cls-2" d="M140.49,220.39l-.09.39a1.92,1.92,0,0,0-1,.11,1.22,1.22,0,0,0-.6.67,8.36,8.36,0,0,0-.45,1.46l-2.52,10.87a4.27,4.27,0,0,0-.48-.13l-.52-.1-6-12.68-1.73,7.48a8.63,8.63,0,0,0-.27,1.67,1.21,1.21,0,0,0,.33.94,3.24,3.24,0,0,0,1.18.63l-.1.39q-.36-.12-1-.27l-1.13-.27-.91-.21c-.32-.06-.58-.11-.79-.13l.09-.39a2.31,2.31,0,0,0,1-.11,1.29,1.29,0,0,0,.6-.67,9.11,9.11,0,0,0,.45-1.45l2-8.77a3.93,3.93,0,0,0,.14-1.08.73.73,0,0,0-.32-.57,2.71,2.71,0,0,0-.89-.36l.09-.39.77.22.91.23.9.19.79.14,5.38,11,1.42-6.09a9.5,9.5,0,0,0,.26-1.68,1.28,1.28,0,0,0-.32-.95,3.1,3.1,0,0,0-1.18-.62l.09-.39,1,.27,1.13.28c.31.07.62.14.93.19Z" transform="translate(-54.04 -46.62)"/><path class="cls-2" d="M145.17,220.88l1.35.05,1.69,0,1.86,0,1.28,0a7.59,7.59,0,0,1,4.16.92,2.89,2.89,0,0,1,1.38,2.57,3.57,3.57,0,0,1-.28,1.37,3.5,3.5,0,0,1-1,1.27,4.77,4.77,0,0,1-1.83.94,10.1,10.1,0,0,1-2.92.35H149v-.4h1.72a3,3,0,0,0,1.79-.45,2.36,2.36,0,0,0,.84-1.2,5.76,5.76,0,0,0,.23-1.67,4.56,4.56,0,0,0-.56-2.45,2.1,2.1,0,0,0-1.92-.87c-.52,0-.85.11-1,.34a2.81,2.81,0,0,0-.23,1.38v9.92A4.09,4.09,0,0,0,150,234a.7.7,0,0,0,.43.48,3.61,3.61,0,0,0,1,.16v.4c-.36,0-.82,0-1.36-.05h-3.47c-.57,0-1,0-1.35,0v-.4a3.69,3.69,0,0,0,1-.15.72.72,0,0,0,.43-.48,4.09,4.09,0,0,0,.11-1.08V223a4,4,0,0,0-.11-1.09.69.69,0,0,0-.44-.48,2.81,2.81,0,0,0-1-.15ZM149,228c.57,0,1.07,0,1.49.08l1.11.11c.32,0,.6.06.86.07a5.43,5.43,0,0,1,2.68.79,2.88,2.88,0,0,1,1.13,1.86l.46,2.06a4.15,4.15,0,0,0,.38,1.12.65.65,0,0,0,.58.32,1,1,0,0,0,.43-.13,2.09,2.09,0,0,0,.37-.33l.28.24a3.38,3.38,0,0,1-1.16.89,3.79,3.79,0,0,1-1.5.27,3.24,3.24,0,0,1-1.78-.47,2.4,2.4,0,0,1-.92-1.7l-.36-2a10.83,10.83,0,0,0-.33-1.47,2.72,2.72,0,0,0-.55-1,1.31,1.31,0,0,0-1-.37H149Z" transform="translate(-54.04 -46.62)"/><path class="cls-2" d="M168.7,219.12c0,.59.09,1.15.16,1.7s.12,1,.17,1.25.09.51.14.74.09.43.13.59l-.45.07a7.59,7.59,0,0,0-1-2.18,2.56,2.56,0,0,0-1.27-1,3.25,3.25,0,0,0-1.6-.1l-.81.13a2.66,2.66,0,0,0-.86.24.59.59,0,0,0-.33.45,3.19,3.19,0,0,0,.05.93l1.65,10.27a2.89,2.89,0,0,0,.24.89.59.59,0,0,0,.45.33,2.56,2.56,0,0,0,.89,0l1-.15a3.23,3.23,0,0,0,1.51-.64,3.11,3.11,0,0,0,1-1.5,8.31,8.31,0,0,0,.34-2.63l.46-.07c0,.43.09,1,.2,1.67,0,.3.13.73.23,1.28s.23,1.12.39,1.7c-.67.08-1.43.18-2.28.31l-2.25.36L165,234l-2.35.39c-.82.14-1.59.28-2.3.42l-.06-.4a3.45,3.45,0,0,0,.92-.31.67.67,0,0,0,.35-.54,4,4,0,0,0-.06-1.09L160,222.67a4,4,0,0,0-.28-1.06.71.71,0,0,0-.51-.4,3,3,0,0,0-1,0l-.07-.4,2.32-.33,2.35-.35,1.78-.29,2.06-.34C167.41,219.37,168.1,219.25,168.7,219.12Zm-2,7.25.06.39-3.45.56-.07-.4Zm.15-2.7c.07.76.14,1.34.21,1.73s.13.75.18,1.08.12.69.2,1.09.2,1,.37,1.7l-.45.07a4.72,4.72,0,0,0-.57-1.22,2.39,2.39,0,0,0-.92-.84,2.16,2.16,0,0,0-1.34-.16l-.06-.39a1.86,1.86,0,0,0,1.19-.64,3,3,0,0,0,.57-1.15,6.07,6.07,0,0,0,.17-1.2Z" transform="translate(-54.04 -46.62)"/><path class="cls-2" d="M176.61,216.4a5.19,5.19,0,0,1,2.19-.32,7.71,7.71,0,0,1,1.72.38q.47.16.6-.12a2.11,2.11,0,0,0-.08-1.13l.44-.14c.14.5.32,1.1.54,1.81s.53,1.64.92,2.8l-.44.15a12.75,12.75,0,0,0-.74-1.41,4.72,4.72,0,0,0-.78-.95,2.92,2.92,0,0,0-1-.6,3.23,3.23,0,0,0-1.33-.34,4.15,4.15,0,0,0-1.39.21,3,3,0,0,0-1.56,1.13,4.11,4.11,0,0,0-.68,1.86A8.59,8.59,0,0,0,175,222a14.3,14.3,0,0,0,.6,2.49,12.94,12.94,0,0,0,1,2.36,7.63,7.63,0,0,0,1.38,1.85,4.06,4.06,0,0,0,1.68,1,3,3,0,0,0,1.92-.05,3.9,3.9,0,0,0,1.19-.66,3.21,3.21,0,0,0,.86-1,3,3,0,0,0,.53-1.75,12.06,12.06,0,0,0-.35-2.38l.43-.15,1,2.91c.26.73.49,1.35.68,1.85l-.43.14a2.12,2.12,0,0,0-.6-.93c-.17-.1-.36,0-.58.25a10.34,10.34,0,0,1-1.2,1.36,5.06,5.06,0,0,1-1.9,1.05,7.73,7.73,0,0,1-3.79.35,6,6,0,0,1-3.13-1.57,8.14,8.14,0,0,1-2.06-3.42,8,8,0,0,1-.38-4,6.62,6.62,0,0,1,1.54-3.28A7,7,0,0,1,176.61,216.4Z" transform="translate(-54.04 -46.62)"/><path class="cls-2" d="M188,211.78l.17.36a3.08,3.08,0,0,0-.8.56.7.7,0,0,0-.18.62,4,4,0,0,0,.39,1l4.35,8.92a3.91,3.91,0,0,0,.57.92.71.71,0,0,0,.6.24,3.17,3.17,0,0,0,.93-.28l.18.36c-.34.14-.75.32-1.25.56l-1.49.72c-.59.28-1.13.55-1.62.8s-.9.46-1.2.63l-.17-.35a3.77,3.77,0,0,0,.79-.57.68.68,0,0,0,.18-.62,4,4,0,0,0-.38-1l-4.35-8.91a3.68,3.68,0,0,0-.58-.93.7.7,0,0,0-.6-.24,3,3,0,0,0-.92.28l-.18-.36c.32-.14.73-.32,1.23-.56s1-.48,1.64-.77l1.48-.75Z" transform="translate(-54.04 -46.62)"/><path class="cls-2" d="M188.62,211.59l1.15-.71c.48-.3,1-.6,1.43-.91s1.05-.69,1.54-1l1.06-.72a6.63,6.63,0,0,1,4.09-1.35,3.45,3.45,0,0,1,2.7,1.62,4.57,4.57,0,0,1,.6,1.42,3.93,3.93,0,0,1,0,1.74,4.78,4.78,0,0,1-.94,1.91,8.53,8.53,0,0,1-2.21,1.95l-1.71,1.12-.22-.34,1.54-1a2.67,2.67,0,0,0,1.21-1.43,2.76,2.76,0,0,0-.08-1.65,7.38,7.38,0,0,0-.84-1.72,5.7,5.7,0,0,0-2-2.07,2.06,2.06,0,0,0-2.12.26q-.64.44-.66.84a2.91,2.91,0,0,0,.56,1.28l5.36,8.21a3.22,3.22,0,0,0,.77.88.87.87,0,0,0,.79.08,5.94,5.94,0,0,0,1.22-.63l.24.37-1.36.84L199,221.66l-1.39.94-1.22.84-.22-.33a3.75,3.75,0,0,0,.72-.66.72.72,0,0,0,.1-.64,4,4,0,0,0-.5-1L191,212.54a3.83,3.83,0,0,0-.69-.85.69.69,0,0,0-.63-.16,3.09,3.09,0,0,0-.87.39Z" transform="translate(-54.04 -46.62)"/><path class="cls-2" d="M206.58,197.86c.35.47.7.92,1,1.34s.62.74.82,1l.52.55.43.42-.34.31a7.45,7.45,0,0,0-2-1.31,2.56,2.56,0,0,0-1.61-.17,3.23,3.23,0,0,0-1.4.78l-.61.55a3,3,0,0,0-.6.67.59.59,0,0,0,0,.55,3.21,3.21,0,0,0,.54.76l6.93,7.75a3.13,3.13,0,0,0,.69.62.59.59,0,0,0,.56,0,2.88,2.88,0,0,0,.73-.52l.73-.65a2.85,2.85,0,0,0,.92-3.13,8.8,8.8,0,0,0-1.13-2.39l.34-.31a15.54,15.54,0,0,0,1.07,1.29c.21.23.5.55.89,1s.79.81,1.24,1.22c-.52.43-1.1.93-1.74,1.49l-1.71,1.51-1.34,1.2-1.77,1.6q-.93.84-1.71,1.59l-.27-.29a3.91,3.91,0,0,0,.61-.76.68.68,0,0,0,0-.65,3.81,3.81,0,0,0-.64-.88l-6.61-7.39a3.77,3.77,0,0,0-.81-.74.7.7,0,0,0-.64-.07,3,3,0,0,0-.81.53l-.27-.3,1.77-1.53c.64-.55,1.23-1.08,1.79-1.58l1.34-1.19,1.55-1.4C205.63,198.76,206.14,198.28,206.58,197.86Zm2.23,7.18.27.29-2.61,2.34-.27-.3Zm-1.33-2.36c.47.6.84,1,1.11,1.34l.74.82c.22.25.47.51.75.8s.69.7,1.23,1.23l-.34.31a5,5,0,0,0-1.14-.72,2.38,2.38,0,0,0-1.22-.21,2.14,2.14,0,0,0-1.22.59l-.26-.3a1.87,1.87,0,0,0,.66-1.18,3.11,3.11,0,0,0-.15-1.28,5.51,5.51,0,0,0-.5-1.09Z" transform="translate(-54.04 -46.62)"/><path class="cls-2" d="M210.34,193.05a5.22,5.22,0,0,1,1.35-1.24,6.89,6.89,0,0,1,1.11-.5,4,4,0,0,0,.41-.17.7.7,0,0,0,.25-.18c.13-.16,0-.46-.4-.9l.29-.35.67.62c.26.24.61.55,1,.92l1.73,1.45-.29.35a6.73,6.73,0,0,0-1.86-.92,4.13,4.13,0,0,0-2-.16,2.68,2.68,0,0,0-1.63,1,2.3,2.3,0,0,0-.59,1.56,1.88,1.88,0,0,0,.75,1.44,2.36,2.36,0,0,0,1.31.57,4.82,4.82,0,0,0,1.61-.19l2.19-.61a20.1,20.1,0,0,1,2.05-.53,5.31,5.31,0,0,1,1.86,0A3.57,3.57,0,0,1,222,196a3.42,3.42,0,0,1,1.24,1.93,4.15,4.15,0,0,1-.17,2.22,6.78,6.78,0,0,1-1.24,2.16,6.58,6.58,0,0,1-1.45,1.37,7.32,7.32,0,0,1-1.18.63,1.46,1.46,0,0,0-.65.35c-.13.16,0,.46.4.9l-.3.35c-.22-.22-.5-.47-.82-.75L216.5,204l-2-1.67.3-.36a9.8,9.8,0,0,0,2.18,1.24,4.15,4.15,0,0,0,2.16.3,3,3,0,0,0,1.85-1.12,2.83,2.83,0,0,0,.69-1.72,2,2,0,0,0-.83-1.62,2.76,2.76,0,0,0-2.12-.67,15.06,15.06,0,0,0-2.66.6c-.72.21-1.41.4-2.08.56a5.28,5.28,0,0,1-1.93.09,3.51,3.51,0,0,1-1.77-.83A3.28,3.28,0,0,1,209.1,197a3.67,3.67,0,0,1,.14-2A6.07,6.07,0,0,1,210.34,193.05Z" transform="translate(-54.04 -46.62)"/><path class="cls-2" d="M217.45,183.49c1.32-2.27,2.82-3.65,4.5-4.16a6.7,6.7,0,0,1,5.4.92,7.72,7.72,0,0,1,2.82,2.73,6.44,6.44,0,0,1,.81,3.64,9.42,9.42,0,0,1-1.38,4.16l-.72,1.17c-.31.5-.58.94-.8,1.32l-.87,1.5c-.28.49-.49.89-.63,1.19l-.35-.2a3.61,3.61,0,0,0,.35-.91.72.72,0,0,0-.2-.61,3.85,3.85,0,0,0-.88-.64l-8.57-5a4.54,4.54,0,0,0-1-.45.73.73,0,0,0-.64.14,3,3,0,0,0-.6.75l-.35-.21.72-1.14c.31-.48.59-1,.86-1.45l.79-1.43C217,184.28,217.25,183.84,217.45,183.49Zm.3.2a1.56,1.56,0,0,0-.31,1.21,2.35,2.35,0,0,0,1.05.94l8.65,5a2.17,2.17,0,0,0,1.33.44c.3-.05.6-.34.91-.87a4.1,4.1,0,0,0,.65-2.69,4.35,4.35,0,0,0-1.3-2.36,14.41,14.41,0,0,0-3-2.23,9.69,9.69,0,0,0-4.85-1.62A3.78,3.78,0,0,0,217.75,183.69Z" transform="translate(-54.04 -46.62)"/><path class="cls-2" d="M237.17,176.9a4.93,4.93,0,1,1-2.82-6.43A4.76,4.76,0,0,1,237.17,176.9Zm-8.94-3.44a4.66,4.66,0,1,0,6-2.72A4.5,4.5,0,0,0,228.23,173.46Zm6.32,2.46a1.93,1.93,0,0,1-2.51,1,2.07,2.07,0,0,1-1.34-2.87c.16-.43.68-1.06,1.21-.86a.39.39,0,0,1,.24.48c-.23.59-1-.13-1.31.68-.37,1,.6,1.61,1.37,1.9s1.72.3,2.06-.6a2.39,2.39,0,0,0-.09-1.57l.08,0C234.77,174.31,234.71,175.52,234.55,175.92Z" transform="translate(-54.04 -46.62)"/><line class="cls-1" x1="15.02" y1="48.71" x2="32.14" y2="59.42"/></svg>